<svg width="19" height="19" viewBox="0 0 19 19" fill="none" xmlns="http://www.w3.org/2000/svg">
<path fill-rule="evenodd" clip-rule="evenodd" d="M7.689 0.256592C6.47055 0.25675 5.26957 0.54644 4.18504 1.10179C3.1005 1.65714 2.16346 2.46225 1.45111 3.45078C0.738765 4.43931 0.271513 5.58296 0.0878575 6.78749C-0.0957978 7.99202 0.00940087 9.22296 0.394785 10.3789C0.780168 11.5348 1.43471 12.5825 2.30446 13.4359C3.17421 14.2892 4.23429 14.9236 5.39733 15.2869C6.56037 15.6501 7.79309 15.7318 8.9939 15.5252C10.1947 15.3186 11.3292 14.8297 12.304 14.0986C12.362 14.2686 12.458 14.4276 12.594 14.5626L16.434 18.4026C16.6622 18.6237 16.9682 18.7461 17.2859 18.7435C17.6036 18.7409 17.9075 18.6135 18.1321 18.3887C18.3566 18.1639 18.4837 17.8598 18.4859 17.5421C18.4882 17.2244 18.3654 16.9185 18.144 16.6906L14.304 12.8506C14.1739 12.72 14.0155 12.6211 13.841 12.5616C14.6982 11.4191 15.2202 10.0605 15.3486 8.63794C15.477 7.21543 15.2067 5.78527 14.568 4.50774C13.9293 3.23022 12.9474 2.15582 11.7324 1.40496C10.5174 0.654096 9.1173 0.256453 7.689 0.256592ZM1.939 7.94659C1.939 7.19149 2.08773 6.44378 2.37669 5.74616C2.66566 5.04854 3.0892 4.41466 3.62314 3.88073C4.15707 3.34679 4.79095 2.92325 5.48857 2.63428C6.18619 2.34532 6.9339 2.19659 7.689 2.19659C8.4441 2.19659 9.19181 2.34532 9.88943 2.63428C10.5871 2.92325 11.2209 3.34679 11.7549 3.88073C12.2888 4.41466 12.7123 5.04854 13.0013 5.74616C13.2903 6.44378 13.439 7.19149 13.439 7.94659C13.439 9.47159 12.8332 10.9341 11.7549 12.0125C10.6765 13.0908 9.21399 13.6966 7.689 13.6966C6.16401 13.6966 4.70147 13.0908 3.62314 12.0125C2.5448 10.9341 1.939 9.47159 1.939 7.94659Z" fill="white"/>
</svg>
