<svg width="21" height="19" viewBox="0 0 21 19" fill="none" xmlns="http://www.w3.org/2000/svg">
<mask id="path-1-inside-1_3_231" fill="white">
<path fill-rule="evenodd" clip-rule="evenodd" d="M10.2366 18.4731L18.35 10.3598L18.483 10.2267L18.4809 10.2246C20.6263 7.93881 20.5826 4.34605 18.35 2.11339C16.1173 -0.11928 12.5245 -0.16292 10.2387 1.98247L10.2366 1.98036L10.2366 1.98039L10.2366 1.98037L10.2345 1.98247C7.94862 -0.162927 4.35586 -0.119289 2.12319 2.11338C-0.109476 4.34605 -0.153114 7.93881 1.99228 10.2246L1.99017 10.2268L10.2365 18.4731L10.2366 18.4731L10.2366 18.4731Z"/>
</mask>
<path d="M18.35 10.3598L17.6429 9.65266L17.6429 9.65267L18.35 10.3598ZM10.2366 18.4731L9.5295 19.1802L10.2366 19.8873L10.9437 19.1802L10.2366 18.4731ZM18.483 10.2267L19.1901 10.9339L19.8972 10.2268L19.1901 9.51964L18.483 10.2267ZM18.4809 10.2246L17.7517 9.54029L17.0887 10.2467L17.7738 10.9317L18.4809 10.2246ZM10.2387 1.98247L9.5316 2.68957L10.2167 3.37462L10.9231 2.71162L10.2387 1.98247ZM10.2366 1.98036L10.9437 1.27325L10.2366 0.566147L9.5295 1.27325L10.2366 1.98036ZM10.2366 1.98039L9.52947 2.6875L10.2366 3.39461L10.9437 2.6875L10.2366 1.98039ZM10.2366 1.98037L10.9437 1.27326L10.2366 0.566155L9.52944 1.27326L10.2366 1.98037ZM10.2345 1.98247L9.5501 2.71162L10.2565 3.37462L10.9416 2.68957L10.2345 1.98247ZM1.99228 10.2246L2.69939 10.9317L3.38444 10.2467L2.72143 9.54029L1.99228 10.2246ZM1.99017 10.2268L1.28306 9.51965L0.575952 10.2268L1.28306 10.9339L1.99017 10.2268ZM10.2365 18.4731L9.52944 19.1802L10.2365 19.8874L10.9437 19.1802L10.2365 18.4731ZM10.2366 18.4731L10.9437 17.766L10.2366 17.0589L9.52947 17.766L10.2366 18.4731ZM17.6429 9.65267L9.5295 17.766L10.9437 19.1802L19.0571 11.0669L17.6429 9.65267ZM17.7759 9.51963L17.6429 9.65266L19.0571 11.0669L19.1901 10.9339L17.7759 9.51963ZM17.7738 10.9317L17.7759 10.9339L19.1901 9.51964L19.188 9.51753L17.7738 10.9317ZM17.6429 2.82049C19.4925 4.67014 19.5288 7.6469 17.7517 9.54029L19.21 10.909C21.7238 8.23071 21.6728 4.02197 19.0571 1.40628L17.6429 2.82049ZM10.9231 2.71162C12.8164 0.934568 15.7932 0.970849 17.6429 2.82049L19.0571 1.40628C16.4414 -1.20941 12.2326 -1.26041 9.55436 1.25331L10.9231 2.71162ZM9.5295 2.68747L9.5316 2.68957L10.9458 1.27536L10.9437 1.27325L9.5295 2.68747ZM10.9437 2.6875L10.9437 2.68747L9.5295 1.27325L9.52947 1.27328L10.9437 2.6875ZM9.52944 2.68748L9.52947 2.6875L10.9437 1.27328L10.9437 1.27326L9.52944 2.68748ZM10.9416 2.68957L10.9437 2.68748L9.52944 1.27326L9.52735 1.27536L10.9416 2.68957ZM2.8303 2.82049C4.67995 0.97084 7.65672 0.934561 9.5501 2.71162L10.9188 1.25331C8.24052 -1.26042 4.03178 -1.20942 1.41609 1.40627L2.8303 2.82049ZM2.72143 9.54029C0.944374 7.6469 0.980653 4.67013 2.8303 2.82049L1.41609 1.40627C-1.1996 4.02196 -1.2506 8.23071 1.26313 10.909L2.72143 9.54029ZM2.69727 10.9339L2.69939 10.9317L1.28517 9.51753L1.28306 9.51965L2.69727 10.9339ZM10.9437 17.766L2.69727 9.51965L1.28306 10.9339L9.52944 19.1802L10.9437 17.766ZM9.52947 17.766L9.52944 17.766L10.9437 19.1802L10.9437 19.1802L9.52947 17.766ZM10.9437 17.766L10.9437 17.766L9.52947 19.1802L9.5295 19.1802L10.9437 17.766Z" fill="black" mask="url(#path-1-inside-1_3_231)"/>
</svg>
